HIERARCHY
ROOT SpineBase
{
  OFFSET 0.000000 0.000000 0.000000
  CHANNELS 6 Xposition Yposition Zposition Zrotation Xrotation Yrotation
  JOINT SpineMid
  {
    OFFSET 0.000000 23.409996 0.000000
    CHANNELS 3 Zrotation Xrotation Yrotation
    JOINT SpineShoulder
    {
      OFFSET 0.047712 17.396156 -0.846790
      CHANNELS 3 Zrotation Xrotation Yrotation
      JOINT Neck
      {
        OFFSET 0.038263 5.775188 -0.548279
        CHANNELS 3 Zrotation Xrotation Yrotation
        JOINT Head
        {
          OFFSET -0.818150 11.539530 -2.988711
          CHANNELS 3 Zrotation Xrotation Yrotation
          End Site
          {
            OFFSET 0 0 0
          }
        }
      }
      JOINT ShoulderLeft
      {
        OFFSET -12.618378 0.150416 6.232362
        CHANNELS 3 Zrotation Xrotation Yrotation
        JOINT ElbowLeft
        {
          OFFSET -6.204456 -14.937029 9.823501
          CHANNELS 3 Zrotation Xrotation Yrotation
          JOINT WristLeft
          {
            OFFSET -19.522738 -2.454595 2.185506
            CHANNELS 3 Zrotation Xrotation Yrotation
            JOINT HandLeft
            {
              OFFSET -3.057173 -3.213563 -1.761767
              CHANNELS 3 Zrotation Xrotation Yrotation
              JOINT HandTipLeft
              {
                OFFSET -3.020340 -2.586111 -2.732335
                CHANNELS 3 Zrotation Xrotation Yrotation
                End Site
                {
                  OFFSET 0 0 0
                }
              }
              JOINT ThumbLeft
              {
                OFFSET 1.076271 -3.924588 -2.566086
                CHANNELS 3 Zrotation Xrotation Yrotation
                End Site
                {
                  OFFSET 0 0 0
                }
              }
            }
          }
        }
      }
      JOINT ShoulderRight
      {
        OFFSET 10.187916 -3.541198 -4.918602
        CHANNELS 3 Zrotation Xrotation Yrotation
        JOINT ElbowRight
        {
          OFFSET 7.330206 -24.948427 1.009787
          CHANNELS 3 Zrotation Xrotation Yrotation
          JOINT WristRight
          {
            OFFSET -9.777477 -3.717097 -18.871771
            CHANNELS 3 Zrotation Xrotation Yrotation
            JOINT HandRight
            {
              OFFSET -4.495214 -0.550815 -2.336281
              CHANNELS 3 Zrotation Xrotation Yrotation
              JOINT HandTipRight
              {
                OFFSET -3.180705 -0.929475 -2.315878
                CHANNELS 3 Zrotation Xrotation Yrotation
                End Site
                {
                  OFFSET 0 0 0
                }
              }
              JOINT ThumbRight
              {
                OFFSET -0.430544 -4.568473 1.038038
                CHANNELS 3 Zrotation Xrotation Yrotation
                End Site
                {
                  OFFSET 0 0 0
                }
              }
            }
          }
        }
      }
    }
  }
  JOINT HipLeft
  {
    OFFSET -6.545635 0.740335 -1.824667
    CHANNELS 3 Zrotation Xrotation Yrotation
    JOINT KneeLeft
    {
      OFFSET -24.043593 9.932879 -22.797797
      CHANNELS 3 Zrotation Xrotation Yrotation
      JOINT AnkleLeft
      {
        OFFSET -12.271751 -34.424786 14.953477
        CHANNELS 3 Zrotation Xrotation Yrotation
        JOINT FootLeft
        {
          OFFSET -5.546647 -2.053635 -11.834590
          CHANNELS 3 Zrotation Xrotation Yrotation
          End Site
          {
            OFFSET 0 0 0
          }
        }
      }
    }
  }
  JOINT HipRight
  {
    OFFSET 6.144256 0.676268 -3.815215
    CHANNELS 3 Zrotation Xrotation Yrotation
    JOINT KneeRight
    {
      OFFSET -23.858821 4.133444 -26.737859
      CHANNELS 3 Zrotation Xrotation Yrotation
      JOINT AnkleRight
      {
        OFFSET -1.976536 -32.234331 6.743544
        CHANNELS 3 Zrotation Xrotation Yrotation
        JOINT FootRight
        {
          OFFSET -5.138480 -2.829399 -10.477622
          CHANNELS 3 Zrotation Xrotation Yrotation
          End Site
          {
            OFFSET 0 0 0
          }
        }
      }
    }
  }
}
MOTION
Frames: 12
Frame Time: 0.033333
22.529613 34.576376 385.686120 -12.039239 4.298732 4.287820 0.707213 1.480288 -4.234697 0.269432 -0.792116 -0.588743 7.377040 -5.311347 0.196226 0.000000 0.000000 0.000000 2.600089 -9.099604 -3.275653 30.415984 7.307120 -9.300092 -21.749985 0.672862 3.260728 9.771312 -9.356675 1.875367 0.000000 0.000000 0.000000 0.000000 0.000000 0.000000 14.402225 -2.719862 2.495869 0.505014 -9.991244 2.810469 -0.640371 6.835163 -5.929306 0.227057 -2.043222 7.289301 0.000000 0.000000 0.000000 0.000000 0.000000 0.000000 9.017702 -3.601533 -7.014865 7.149050 -1.604726 5.754130 3.410213 -16.581970 -2.186906 0.000000 0.000000 0.000000 7.137648 -0.396185 -15.370435 7.283605 -6.062478 12.527936 -1.953667 4.961783 -0.160318 0.000000 0.000000 0.000000
22.359762 34.458495 386.122404 -12.383644 3.152685 4.801462 1.012375 2.453205 -4.765619 0.411402 -0.351891 -0.533976 7.558668 -5.737938 0.257333 0.000000 0.000000 0.000000 2.202068 -8.460431 -3.891598 31.420263 6.897256 -7.635043 -23.843046 1.993300 1.888409 11.787633 -10.072095 1.632897 0.000000 0.000000 0.000000 0.000000 0.000000 0.000000 14.676071 -2.579011 2.683732 0.387201 -10.826667 2.992427 0.185327 6.526682 -4.832793 1.607697 -3.396863 8.059521 0.000000 0.000000 0.000000 0.000000 0.000000 0.000000 9.233583 -2.753051 -8.609015 6.883430 -1.134956 6.370550 3.940968 -16.818806 -1.566719 0.000000 0.000000 0.000000 7.341874 0.936859 -16.792863 5.072239 -3.416614 12.555048 -0.091649 1.679441 0.436917 0.000000 0.000000 0.000000
22.065888 34.192743 386.889821 -12.835995 1.546965 5.297868 1.358145 3.510329 -5.335512 0.574776 0.255447 -0.465782 7.883489 -5.897655 0.354351 0.000000 0.000000 0.000000 1.306962 -7.870072 -4.815300 31.009528 6.735264 -5.852476 -17.175326 3.069686 -1.678801 8.307630 -11.789424 5.894408 0.000000 0.000000 0.000000 0.000000 0.000000 0.000000 15.097331 -2.204465 2.862808 0.274255 -11.853293 3.218143 0.828131 6.506804 -4.169343 1.364603 -3.652620 8.692565 0.000000 0.000000 0.000000 0.000000 0.000000 0.000000 9.452573 -1.535344 -10.895225 6.527686 -0.481238 7.483348 3.794702 -15.097805 -0.949365 0.000000 0.000000 0.000000 7.533746 2.987075 -18.911225 3.445345 -1.386832 13.442628 1.607325 -1.155036 1.015793 0.000000 0.000000 0.000000
21.978977 34.182663 387.129779 -12.921541 1.132557 4.047066 1.191423 3.596414 -4.130303 0.631542 0.591808 -0.435115 8.192906 -5.894186 0.433202 0.000000 0.000000 0.000000 0.906707 -7.320732 -5.347374 32.284460 6.676941 -5.022504 -17.954315 4.109979 -3.097147 8.496214 -11.549218 5.334531 0.000000 0.000000 0.000000 0.000000 0.000000 0.000000 15.507578 -1.619550 3.043361 0.176004 -12.904314 3.476592 0.276337 7.295459 -4.889950 4.007817 -5.253822 9.485341 0.000000 0.000000 0.000000 0.000000 0.000000 0.000000 9.699461 -1.036789 -9.693943 6.287962 -0.191235 7.316540 2.142833 -11.526579 -0.628184 0.000000 0.000000 0.000000 7.581741 3.510034 -18.240358 2.211166 0.218979 13.682817 2.450214 -2.946540 1.387303 0.000000 0.000000 0.000000
21.936153 34.029901 387.762476 -12.901329 0.042281 4.866288 1.191850 4.139790 -5.028057 0.617009 0.881540 -0.413788 8.277029 -5.754653 0.419963 0.000000 0.000000 0.000000 0.472984 -6.478062 -5.888852 32.670308 6.526019 -3.675982 -17.015092 4.892926 -4.715033 8.254176 -11.734050 5.620302 0.000000 0.000000 0.000000 0.000000 0.000000 0.000000 15.796072 -0.870394 3.156601 0.098318 -13.775306 3.739603 -0.884612 8.352049 -5.133271 6.812581 -6.928341 10.460338 0.000000 0.000000 0.000000 0.000000 0.000000 0.000000 9.617501 -0.365862 -11.677634 5.807960 0.443024 7.922354 0.400568 -6.907299 -0.026333 0.000000 0.000000 0.000000 7.641296 4.551310 -19.741831 1.408402 1.332794 14.055715 3.094708 -4.338156 1.650079 0.000000 0.000000 0.000000
21.979637 33.820760 388.514875 -12.717960 -1.089889 6.257063 1.164201 4.561547 -6.511074 0.535440 1.027382 -0.410311 8.313115 -5.041544 0.407380 0.000000 0.000000 0.000000 0.664827 -6.312617 -5.620878 29.984448 6.439936 -3.809539 -10.750027 3.170920 -4.273762 6.243060 -12.773470 8.129911 0.000000 0.000000 0.000000 0.000000 0.000000 0.000000 16.054444 0.062274 3.176639 0.076683 -14.593085 4.075978 -1.496085 9.094456 -5.120220 8.054610 -7.571307 9.621763 0.000000 0.000000 0.000000 0.000000 0.000000 0.000000 9.277742 0.273268 -14.583480 5.281076 1.045093 8.845997 -1.491456 -1.742142 0.735827 0.000000 0.000000 0.000000 7.581272 5.677685 -21.767620 1.760527 0.785046 14.587650 3.091347 -3.981590 1.566529 0.000000 0.000000 0.000000
22.021826 33.785072 388.632300 -12.657652 -0.910406 5.990614 1.025165 3.989679 -6.278201 0.468197 0.890468 -0.431057 8.290386 -4.186982 0.393726 0.000000 0.000000 0.000000 0.182432 -5.199458 -6.131873 32.866251 6.569428 -3.140637 -14.434441 3.164794 -4.261532 7.109965 -11.103421 4.804596 0.000000 0.000000 0.000000 0.000000 0.000000 0.000000 16.138566 0.941757 3.171023 0.128392 -15.185507 4.318816 -1.641678 9.414793 -5.290410 8.627343 -7.897108 9.406582 0.000000 0.000000 0.000000 0.000000 0.000000 0.000000 9.199483 0.146240 -14.286643 5.368064 1.030708 8.887153 -2.774255 0.974504 0.347098 0.000000 0.000000 0.000000 7.418770 5.646840 -21.451679 1.606669 0.686646 14.507675 3.354979 -4.032692 1.596055 0.000000 0.000000 0.000000
22.134529 33.770887 388.419623 -12.527639 -0.199865 5.873167 0.888533 3.142958 -6.160545 0.389818 0.573818 -0.466565 8.244316 -3.432970 0.390113 0.000000 0.000000 0.000000 -0.199640 -4.484233 -6.425088 32.180970 6.466621 -1.887485 -11.313212 2.999510 -5.594563 6.598327 -11.618504 5.528037 0.000000 0.000000 0.000000 0.000000 0.000000 0.000000 16.026928 1.726528 3.162337 0.237873 -15.636825 4.462371 -1.216267 9.306504 -5.992861 7.882223 -7.481769 10.101713 0.000000 0.000000 0.000000 0.000000 0.000000 0.000000 9.071084 -0.408473 -13.601920 5.789914 0.686379 8.717547 -0.749314 -3.864944 -0.644838 0.000000 0.000000 0.000000 7.217887 5.003612 -20.533088 2.507950 -0.181606 13.992605 2.676560 -3.041945 1.288805 0.000000 0.000000 0.000000
22.222622 33.788104 388.412929 -12.460857 0.068607 5.384805 0.815799 2.655453 -5.688168 0.351845 0.461981 -0.478481 8.169334 -2.715347 0.396586 0.000000 0.000000 0.000000 -0.100766 -3.972351 -6.363854 33.605830 6.494150 -2.259544 -15.984684 1.998963 -2.964913 8.831570 -10.068491 1.785870 0.000000 0.000000 0.000000 0.000000 0.000000 0.000000 15.761716 2.400910 3.174563 0.511307 -16.154725 4.628678 -0.443530 8.877411 -5.361709 7.441760 -7.332111 8.435600 0.000000 0.000000 0.000000 0.000000 0.000000 0.000000 9.090716 -0.694588 -13.001169 5.498947 0.668097 8.583909 0.773650 -6.520903 -1.466266 0.000000 0.000000 0.000000 7.282640 4.489990 -19.589590 4.139392 -1.738512 14.000966 1.241143 -0.928060 0.748566 0.000000 0.000000 0.000000
22.312196 33.900612 388.179036 -12.444024 0.730061 4.402971 0.761888 1.991513 -4.696132 0.328595 0.291131 -0.494668 8.040101 -2.151574 0.395820 0.000000 0.000000 0.000000 -0.359960 -3.635543 -6.548228 34.978110 6.676800 -1.874943 -18.787184 0.170361 -0.724058 9.255373 -9.639828 1.186474 0.000000 0.000000 0.000000 0.000000 0.000000 0.000000 15.361700 2.827726 3.189493 0.939205 -16.589684 4.734813 0.516916 8.350571 -4.985493 5.630349 -6.272942 6.812403 0.000000 0.000000 0.000000 0.000000 0.000000 0.000000 9.244830 -1.208783 -11.377962 5.608694 0.399877 8.253397 1.479317 -8.405711 -2.379033 0.000000 0.000000 0.000000 7.341663 3.636064 -18.235128 5.114357 -2.576725 14.009184 0.259491 0.413274 0.376380 0.000000 0.000000 0.000000
22.443371 34.103458 387.726911 -12.370195 1.706094 3.703773 0.700721 1.255608 -3.959324 0.346293 0.061203 -0.510592 7.803662 -1.738979 0.387509 0.000000 0.000000 0.000000 -0.900232 -2.168257 -7.334598 36.993368 6.418967 1.446504 -22.222419 -0.386696 -1.035916 9.180243 -7.719117 -1.121492 0.000000 0.000000 0.000000 0.000000 0.000000 0.000000 15.019895 2.922528 3.197135 1.279296 -16.901672 4.874223 1.008799 8.188356 -5.098983 5.328039 -6.180341 6.909156 0.000000 0.000000 0.000000 0.000000 0.000000 0.000000 9.397262 -1.979607 -9.608154 5.816461 0.046527 7.618183 1.603184 -9.505211 -3.030940 0.000000 0.000000 0.000000 7.403061 2.413736 -16.888519 6.055133 -3.244261 13.803016 -0.828448 1.636543 0.100750 0.000000 0.000000 0.000000
22.581005 34.361337 387.122255 -12.319753 2.845915 3.331324 0.669832 0.567865 -3.526840 0.319680 -0.183142 -0.534056 7.724921 -1.508919 0.425826 0.000000 0.000000 0.000000 -1.284615 -1.831261 -7.768277 37.553792 6.383545 2.798272 -21.872104 -0.458793 -1.808009 8.010540 -7.478746 -0.483970 0.000000 0.000000 0.000000 0.000000 0.000000 0.000000 14.816712 2.750436 3.229979 1.424104 -16.910378 4.875802 3.161235 6.720976 -4.282076 3.645162 -5.449303 5.726762 0.000000 0.000000 0.000000 0.000000 0.000000 0.000000 9.629916 -2.907559 -7.844653 6.030591 -0.391390 6.743264 1.212710 -9.672794 -3.410581 0.000000 0.000000 0.000000 7.570489 0.958142 -15.445090 5.605980 -3.061218 12.840994 -0.888858 1.736709 0.140914 0.000000 0.000000 0.000000
